<?xml version="1.0" encoding="utf-8"?>
<!-- Generator: Adobe Illustrator 16.0.0, SVG Export Plug-In . SVG Version: 6.00 Build 0)  -->
<!DOCTYPE svg PUBLIC "-//W3C//DTD SVG 1.1//EN" "http://www.w3.org/Graphics/SVG/1.1/DTD/svg11.dtd">
<svg version="1.1" id="Layer_1" xmlns="http://www.w3.org/2000/svg" xmlns:xlink="http://www.w3.org/1999/xlink" x="0px" y="0px"
	 width="210px" height="288px" viewBox="0 0 210 288" enable-background="new 0 0 210 288" xml:space="preserve">
<g>
	<path fill="#EF4A51" d="M104.9,0.617C47.74,0.617,1.402,46.961,1.402,104.124c0,57.151,46.338,103.493,103.499,103.493
		s103.498-46.342,103.498-103.493C208.398,46.961,162.061,0.617,104.9,0.617z"/>
	<path fill="#FFFFFF" d="M149.9,48.619c4.97,0,8.999,4.025,8.999,9v63c0,29.823-24.177,53.999-53.999,53.999
		s-53.999-24.176-53.999-53.999v-63c0-4.974,4.029-9,9-9H149.9z"/>
</g>
<g>
	<path fill="#FFFFFF" d="M208.4,272.113c0,4.145-3.365,7.504-7.5,7.504c-4.143,0-7.5-3.359-7.5-7.504c0-4.137,3.357-7.496,7.5-7.496
		C205.035,264.617,208.4,267.977,208.4,272.113z"/>
	<rect x="163.4" y="228.617" fill="#FFFFFF" width="9" height="48"/>
	<path fill="#FFFFFF" d="M43.401,240.617c-9.941,0-18,8.059-18,18s8.059,18,18,18s18-8.059,18-18S53.342,240.617,43.401,240.617z
		 M43.401,267.617c-4.97,0-9-4.029-9-9s4.03-9,9-9s9,4.029,9,9S48.371,267.617,43.401,267.617z"/>
	<path fill="#FFFFFF" d="M82.4,240.617c-9.939,0-18,8.059-18,18s8.06,18,18,18c9.941,0,18-8.059,18-18S92.342,240.617,82.4,240.617z
		 M82.4,267.617c-4.969,0-9-4.029-9-9s4.031-9,9-9c4.971,0,9,4.029,9,9S87.371,267.617,82.4,267.617z"/>
	<path fill="#FFFFFF" d="M19.401,237.617h9v-9h-9c-9.941,0-18,8.059-18,18v30h9v-21h12l1-9h-13
		C10.401,241.646,14.431,237.617,19.401,237.617z"/>
	<path fill="#FFFFFF" d="M112.4,258.617v-9h7v-9h-7v-9h-9v9h-4l1,9h3v9c0,9.941,8.061,18,18,18v-9
		C116.432,267.617,112.4,263.588,112.4,258.617z"/>
	<path fill="#FFFFFF" d="M142.4,240.617c-9.939,0-18,8.059-18,18v29h9v-13.428c2.65,1.535,5.719,2.428,9,2.428
		c9.941,0,18-8.059,18-18S152.342,240.617,142.4,240.617z M142.4,267.617c-4.969,0-9-4.029-9-9s4.031-9,9-9c4.971,0,9,4.029,9,9
		S147.371,267.617,142.4,267.617z"/>
	<path fill="#FFFFFF" d="M193.4,240.615c-9.941,0-18,8.059-18,18v18h9v-18c0-4.971,4.029-9,9-9h3v-9H193.4z"/>
</g>
</svg>
